<svg
   width="500"
   height="500"
   xmlns="http://www.w3.org/2000/svg">
  <path
     d="M 3.1088898,366.7919 C 0.24973899,365.13266 -8.5939598e-7,360.4021 -8.5939598e-7,307.9034 -8.5939598e-7,265.86453 0.56186984,250.25924 2.13181,248.69501 c 1.1960522,-1.19169 6.9292198,-2.12405 13.061101,-2.12405 8.441555,0 12.303296,0.92126 16.965661,4.0473 9.802477,6.57241 10.766526,12.27612 10.139856,59.9915 -0.51392,39.13053 -0.79475,42.24479 -4.22977,46.90605 -2.023615,2.74602 -6.420474,6.38544 -9.770798,8.08761 -6.675572,3.39156 -20.2861181,4.03374 -25.1889702,1.18848 z M 55.071778,307.63735 v -16.81538 h 14.860747 c 12.344238,0 15.653402,-0.62123 19.541598,-3.66856 4.203589,-3.2945 4.680851,-4.84784 4.680851,-15.23472 0,-9.83691 0.421627,-11.40495 2.820065,-10.48794 6.316931,2.41522 16.265101,3.00695 23.383431,1.39091 l 7.55016,-1.71408 v 12.43928 c 0,17.68201 -2.86485,25.47377 -13.28651,36.13637 -11.04269,11.29795 -21.357566,14.7695 -43.884201,14.7695 H 55.071778 Z m 46.177732,-59.08148 c -8.512841,-2.76866 -15.581202,-7.20026 -20.191461,-12.65929 -5.91127,-6.99957 -10.65223,-22.9189 -9.085792,-30.50853 1.690972,-8.19301 11.714052,-29.61868 13.855833,-29.61868 1.591802,0 66.61257,32.95434 68.6298,34.78351 1.31829,1.19538 -8.04706,18.94331 -13.24236,25.09509 -8.93807,10.58361 -28.09192,16.76976 -39.96602,12.9079 z m 19.83746,-27.91866 c 4.44509,-3.99036 5.45333,-10.62645 2.4838,-16.348 -4.44797,-8.5701 -14.47302,-9.93837 -21.50226,-2.93472 -12.836281,12.78953 5.51967,31.40056 19.01846,19.28272 z m 31.90189,-27.24545 C 90.829286,162.19614 38.57245,135.02629 36.86256,133.01431 c -1.709889,-2.01201 -3.10889,-5.96587 -3.10889,-8.78637 0,-6.75743 41.409993,-89.283369 46.039443,-91.751953 1.908074,-1.017454 6.325504,-1.849914 9.816511,-1.849914 h 6.347282 l -11.56002,22.985246 c -13.013144,25.874548 -14.218393,32.730716 -7.503964,42.686986 4.87217,7.224545 7.340039,8.577655 113.452378,62.205195 l 81.09003,40.98164 16.61796,0.68929 c 14.10729,0.58517 18.63101,0.0277 29.9418,-3.68995 7.3281,-2.40861 13.56345,-4.1654 13.85629,-3.90399 0.29288,0.26143 -3.13388,8.73276 -7.61502,18.82522 -12.58761,28.34986 -25.6638,38.70534 -48.8745,38.70534 -8.74386,0 -16.74551,-3.70874 -122.373,-56.71929 z m 178.90897,46.95016 -4.75059,-2.59347 7.25818,-15.83263 7.25817,-15.83261 5.33657,2.16962 c 9.26029,3.76483 9.48968,6.29259 1.88374,20.7585 -3.79826,7.224 -8.10508,13.31218 -9.57071,13.52931 -1.46561,0.21711 -4.80251,-0.7723 -7.41536,-2.19872 z m 36.36737,-55.06409 c -10.75655,-5.07026 -27.16694,-8.13573 -36.05804,-6.73568 -3.41977,0.53851 -11.57141,2.61073 -18.11474,4.60498 -8.94202,2.72528 -15.41069,3.46687 -26.04376,2.98576 -14.08197,-0.63716 -14.34497,-0.7393 -57.38688,-22.28275 C 142.30371,119.62493 90.970201,93.393621 88.162282,91.033212 83.207662,86.868236 84.855252,80.972891 98.635368,53.558768 108.00454,34.919747 113.25322,26.40488 116.19721,25.068391 c 3.69726,-1.678441 11.91727,1.954665 68.80062,30.40869 35.53092,17.773183 68.59881,34.467178 73.48421,37.097772 4.8854,2.630591 37.02326,18.865057 71.41745,36.076577 40.13732,20.08551 63.83861,32.94507 66.17496,35.90441 5.24246,6.64046 4.67729,13.99246 -1.55282,20.19986 -6.46889,6.44536 -13.39797,6.58314 -26.25643,0.52213 z M 134.88573,79.063468 c 2.02507,-2.565092 3.68197,-5.643748 3.68197,-6.841454 0,-1.197706 -1.6569,-4.276362 -3.68197,-6.841455 -4.5048,-5.706075 -12.52421,-6.217047 -17.63615,-1.123725 -4.62263,4.605814 -4.50867,10.263543 0.30968,15.373769 5.27224,5.591599 12.65509,5.349943 17.32647,-0.567135 z"
     />
</svg>
