<?xml version="1.0" encoding="UTF-8" standalone="no"?>
<svg
   width="850"
   height="850"
   version="1.1"
   id="svg1"
   sodipodiDocname="casaMain.svg"
   inkscapeVersion="1.3.2 (091e20e, 2023-11-25, custom)"
   xmlnsInkscape="http://www.inkscape.org/namespaces/inkscape"
   xmlnsSodipodi="http://sodipodi.sourceforge.net/DTD/sodipodi-0.dtd"
   xmlns="http://www.w3.org/2000/svg"
   xmlnsSvg="http://www.w3.org/2000/svg">
  <defs
     id="defs1" />
  <sodipodiNamedview
     id="namedview1"
     pagecolor="#ffffff"
     bordercolor="#111111"
     borderopacity="1"
     inkscapeShowpageshadow="0"
     inkscapePageopacity="0"
     inkscapePagecheckerboard="1"
     inkscapeDeskcolor="#d1d1d1"
     inkscapeZoom="1.0129412"
     inkscapeCx="425"
     inkscapeCy="346.02207"
     inkscapeWindow-width="1920"
     inkscapeWindow-height="1057"
     inkscapeWindow-x="-8"
     inkscapeWindow-y="379"
     inkscapeWindow-maximized="1"
     inkscapeCurrent-layer="svg1" />
  <path
     d="M 80.325873,815.28036 76.103355,811.5316 75.919044,637.73482 C 75.756305,484.32291 75.569724,458.15754 74.606812,453.7503 c -0.123,-0.56327 -2.736555,-1.5141 -5.807758,-2.11298 C 29.066785,443.88976 -0.68812484,404.30858 5.2405518,367.08928 9.378243,341.1135 37.930418,315.32045 59.931155,298.3801 185.45487,201.72803 261.80473,142.7428 379.31476,54.368113 c 24.99006,-18.794047 72.31292,-16.857618 95.92248,2.216699 80.32148,64.892198 41.18077,30.054948 94.97449,74.093518 1.58029,1.29373 2.03798,-0.33032 9.95357,5.84907 l 7.72195,6.02818 0.86014,-24.10886 c 1.3193,-36.978907 -5.22618,-34.27191 81.5035,-33.707146 l 66.74157,0.434624 4.15029,4.285162 4.15031,4.285172 v 84.616958 84.61696 l 7.0323,5.78881 c 3.86776,3.18387 8.14176,6.34656 9.49774,7.02817 1.35598,0.68162 1.93795,2.05617 1.2933,3.05456 -0.64469,0.99836 -0.5508,1.31649 0.20864,0.70694 1.16802,-0.93751 58.69458,40.11774 69.88065,56.65996 18.89425,27.94139 17.13766,61.0151 -4.63525,87.27315 -4.22553,5.09601 -8.45411,8.84226 -9.39682,8.32502 -0.94267,-0.51725 -1.50125,-0.14402 -1.24129,0.82952 0.79962,2.99414 -17.78515,13.59432 -30.49238,17.39191 l -12.04196,3.59877 -0.20734,5.15137 c -0.11402,2.83328 -0.30758,83.35995 -0.43007,178.94819 l -0.22273,173.79678 -4.22251,3.74876 -4.2225,3.74877 H 425.32061 84.548374 Z m 689.051137,-1.5967 c 0,-0.41999 -0.38707,-0.76363 -0.86016,-0.76363 -0.47306,0 -0.86012,0.34364 -0.86012,0.76363 0,0.42001 0.38706,0.76364 0.86012,0.76364 0.47309,0 0.86016,-0.34363 0.86016,-0.76364 z m -602.0602,-158.0728 c -0.0407,-144.83608 -0.0333,-144.96263 8.55757,-148.90674 6.26634,-2.87687 196.43445,-3.49137 203.44045,-0.6574 9.41387,3.80802 8.98519,-2.83911 9.44836,146.50959 l 0.42866,138.21826 H 565.95224 742.71263 V 622.10175 453.42893 l -9.84667,-2.5951 c -12.36475,-3.2588 -25.90192,-10.16667 -24.33479,-12.41783 0.71287,-1.02405 0.37341,-1.24146 -0.87166,-0.5583 -5.09174,2.79381 -76.89864,-59.74053 -256.4274,-194.7282 L 425.2242,223.14779 c -77.46202,57.33702 -152.49696,117.17385 -228.63878,175.88111 -8.22499,6.3 -23.0564,17.70849 -32.95868,25.35217 -22.61612,17.45771 -29.2467,21.34175 -43.92617,25.73099 l -11.772,3.51988 -0.44302,167.04403 c -0.24365,91.87423 -0.0674,167.91944 0.39174,168.98935 0.64088,1.49356 7.64379,1.84823 30.15606,1.52726 l 29.32133,-0.41801 z m 282.73159,38.62056 c -2.01128,-0.33079 -5.49484,-2.33796 -7.74128,-4.46042 l -4.0844,-3.85898 -0.47277,-83.949 c -0.51594,-91.61194 -0.49028,-91.87816 9.23803,-95.81335 3.07782,-1.24501 37.00405,-1.73889 119.44956,-1.73889 h 115.1508 l 5.25952,4.19998 5.25954,4.20003 -0.0546,86.8799 c -0.0592,94.23472 0.41565,89.73748 -9.87731,93.55729 -5.16742,1.91767 -220.88959,2.83161 -232.12716,0.98344 z m 99.13251,-53.89331 v -25.96364 h -39.5665 -39.56648 v 25.96364 25.96366 h 39.56648 39.5665 z m 111.42888,-0.003 c -0.25888,-14.28154 -1.05129,-25.96518 -1.76091,-25.96354 -0.70962,10e-4 -18.321,0.003 -39.13642,0.003 h -37.84619 v 25.96364 25.96365 h 39.6071 39.60711 z m -111.81834,-80.946 c -0.25888,-14.28153 -1.05128,-25.96518 -1.7609,-25.96355 -0.70961,10e-4 -18.321,0.003 -39.13642,0.003 h -37.8462 v 25.96364 25.96366 h 39.60712 39.60709 z m 112.20778,0.003 v -25.96365 h -39.56647 -39.56649 v 25.96365 25.96367 h 39.56649 39.56647 z M 447.68427,512.81079 c 0,-0.42 -0.38707,-0.76365 -0.86013,-0.76365 -0.4731,0 -0.86015,0.34365 -0.86015,0.76365 0,0.42 0.38705,0.76363 0.86015,0.76363 0.47306,0 0.86013,-0.34363 0.86013,-0.76363 z m -91.17494,149.92735 c 0,-70.84005 -0.32212,-129.08644 -0.71582,-129.43643 -0.39369,-0.35001 -35.61647,-0.45077 -78.27282,-0.22391 l -77.55703,0.41248 v 129.02395 129.02398 h 78.27283 78.27284 z m -122.84726,21.77373 c -9.68792,-10.22168 -5.46252,-34.49273 6.62133,-38.03334 16.17091,-4.73812 27.73526,16.07083 19.11287,34.39181 -4.56673,9.70346 -18.16507,11.62769 -25.7342,3.64153 z M 174.15942,511.28351 c 0,-0.42 -0.38706,-0.76363 -0.86012,-0.76363 -0.4731,0 -0.86015,0.34363 -0.86015,0.76363 0,0.42 0.38705,0.76363 0.86015,0.76363 0.47306,0 0.86012,-0.34363 0.86012,-0.76363 z m 8.60141,-4.58183 c 0,-0.41999 -0.38706,-0.76363 -0.86013,-0.76363 -0.47308,0 -0.86014,0.34364 -0.86014,0.76363 0,0.42 0.38706,0.76364 0.86014,0.76364 0.47307,0 0.86013,-0.34364 0.86013,-0.76364 z M 148.3552,433.39257 c 0,-0.42002 -0.38707,-0.76364 -0.86014,-0.76364 -0.47308,0 -0.86014,0.34362 -0.86014,0.76364 0,0.42 0.38706,0.76363 0.86014,0.76363 0.47307,0 0.86014,-0.34363 0.86014,-0.76363 z m -33.5455,-12.23921 c 4.73078,-1.90006 15.67761,-9.10218 24.47197,-15.85653 93.06422,-65.77951 180.21069,-142.08244 271.0534,-208.33238 12.91173,-9.29885 16.85414,-9.32488 29.47889,-0.19464 5.42416,3.92273 9.14245,7.7035 8.49333,8.63598 -0.68645,0.98609 -0.35498,1.21984 0.81751,0.5765 2.55989,-1.4046 270.92732,204.74731 269.22131,207.19799 -0.64296,0.92361 -0.27865,1.13761 0.8668,0.50912 1.08676,-0.59631 4.53809,0.65079 7.66957,2.77132 35.40597,23.97554 89.06169,-11.63012 86.30165,-39.57728 -3.52415,-35.68398 -17.09409,-37.13805 -118.51472,-115.92894 -0.52122,-0.40493 0.20978,0.25054 -0.36951,-0.18103 -70.50721,-52.52778 -70.28482,-51.94051 -125.06756,-97.32994 -0.91132,-0.75508 0.29407,0.10885 -0.84442,-0.53417 C 535.40645,144.27862 435.34932,59.426611 416.90386,72.911309 203.12267,229.19772 202.56276,228.95777 39.94141,360.44143 c -17.091036,13.81856 30.546376,78.51321 74.86829,60.71193 z m 54.18888,-3.03354 c 0,-0.42001 -0.38706,-0.76363 -0.86014,-0.76363 -0.47309,0 -0.86015,0.34362 -0.86015,0.76363 0,0.42001 0.38706,0.76364 0.86015,0.76364 0.47308,0 0.86014,-0.34363 0.86014,-0.76364 z m -24.08394,-4.58181 c 0,-0.42001 -0.38707,-0.76363 -0.86016,-0.76363 -0.47307,0 -0.86012,0.34362 -0.86012,0.76363 0,0.42001 0.38705,0.76363 0.86012,0.76363 0.47309,0 0.86016,-0.34362 0.86016,-0.76363 z M 39.977433,402.84709 c 0,-0.42001 -0.387064,-0.76363 -0.860141,-0.76363 -0.473078,0 -0.860142,0.34362 -0.860142,0.76363 0,0.42 0.387064,0.76364 0.860142,0.76364 0.473077,0 0.860141,-0.34364 0.860141,-0.76364 z m 8.601409,-59.56368 c 0,-0.41998 -0.387062,-0.76363 -0.860141,-0.76363 -0.473077,0 -0.86014,0.34365 -0.86014,0.76363 0,0.42001 0.387063,0.76365 0.86014,0.76365 0.473079,0 0.860141,-0.34364 0.860141,-0.76365 z M 402.95693,237.90157 c 0,-0.41999 -0.38707,-0.76362 -0.86015,-0.76362 -0.47307,0 -0.86012,0.34363 -0.86012,0.76362 0,0.99727 1.72027,0.99727 1.72027,0 z m 306.21021,0 c 0,-0.41999 -0.38707,-0.76362 -0.86015,-0.76362 -0.47307,0 -0.86012,0.34363 -0.86012,0.76362 0,0.42002 0.38705,0.76365 0.86012,0.76365 0.47308,0 0.86015,-0.34363 0.86015,-0.76365 z m 5.16083,-62.70835 v -61.76447 h -46.4476 -46.44761 v 27.40917 27.40915 c 67.7195,52.26357 88.94632,68.81878 89.17152,69.27307 2.86865,5.78738 3.72369,-8.52434 3.72369,-62.32695 z m -337.17526,52.0174 c 0,-0.41998 -0.38706,-0.76363 -0.86016,-0.76363 -0.47306,0 -0.86013,0.34365 -0.86013,0.76363 0,0.42002 0.38707,0.76365 0.86013,0.76365 0.4731,0 0.86016,-0.34363 0.86016,-0.76365 z m 39.56648,0 c 0,-0.41998 -0.38705,-0.76363 -0.86014,-0.76363 -0.47308,0 -0.86015,0.34365 -0.86015,0.76363 0,0.42002 0.38707,0.76365 0.86015,0.76365 0.47309,0 0.86014,-0.34363 0.86014,-0.76365 z m 22.36366,-21.38182 c 0,-0.42001 -0.38706,-0.76363 -0.86013,-0.76363 -0.47308,0 -0.86015,0.34362 -0.86015,0.76363 0,0.42 0.38707,0.76363 0.86015,0.76363 0.47307,0 0.86013,-0.34363 0.86013,-0.76363 z m 63.65045,-97.7455 c 0,-0.42001 -0.38706,-0.76363 -0.86015,-0.76363 -0.47308,0 -0.86014,0.34362 -0.86014,0.76363 0,0.99726 1.72029,0.99726 1.72029,0 z m 92.89521,-16.80001 c 0,-0.419994 -0.38706,-0.763644 -0.86012,-0.763644 -0.4731,0 -0.86017,0.34365 -0.86017,0.763644 0,0.419995 0.38707,0.763644 0.86017,0.763644 0.47306,0 0.86012,-0.343649 0.86012,-0.763644 z M 475.20877,89.756012 c 0,-0.420004 -0.38706,-0.763634 -0.86012,-0.763634 -0.4731,0 -0.86015,0.34363 -0.86015,0.763634 0,0.420005 0.38705,0.763634 0.86015,0.763634 0.47306,0 0.86012,-0.343629 0.86012,-0.763634 z m -86.0141,-9.163639 c 0,-0.419995 -0.38707,-0.763634 -0.86013,-0.763634 -0.47309,0 -0.86015,0.343639 -0.86015,0.763634 0,0.420005 0.38706,0.763634 0.86015,0.763634 0.47306,0 0.86013,-0.343629 0.86013,-0.763634 z"
     id="path1"
     style="stroke-width:1;fill:#ffffff" />
</svg>
