<svg width="980" height="980" xmlns="http://www.w3.org/2000/svg">
   <path d="M 289.45455,741.54545 287,739.09091 286.89286,625.29545 c -0.0946,-100.44821 -0.20306,-117.58029 -0.7628,-120.46599 -0.0715,-0.3688 -1.59076,-0.99137 -3.37605,-1.38349 -23.09637,-5.07281 -40.3929,-30.98904 -36.94656,-55.35881 2.40524,-17.00794 19.00262,-33.89623 31.79165,-44.98813 72.96695,-63.28406 117.34912,-101.90532 185.6577,-159.76967 14.52672,-12.30562 42.0355,-11.03772 55.75974,1.45141 46.69088,42.48892 23.93838,19.67882 55.20868,48.51359 0.91862,0.84708 1.18468,-0.21628 5.78602,3.82975 l 4.48876,3.94702 0.5,-15.78556 c 0.76691,-24.21237 -3.03798,-22.43993 47.37799,-22.07014 l 38.79687,0.28457 2.41257,2.80576 2.41257,2.80577 v 55.40393 55.40393 l 4.08788,3.7903 c 2.24833,2.08467 4.7328,4.15547 5.52103,4.60177 0.78824,0.4463 1.12654,1.3463 0.7518,2 -0.37475,0.6537 -0.32017,0.862 0.12128,0.46289 0.67897,-0.61385 34.11917,26.26755 40.62162,37.09876 10.98324,18.29494 9.96213,39.95034 -2.69446,57.1431 -2.45631,3.33667 -4.91438,5.78957 -5.46237,5.4509 -0.54798,-0.33867 -0.87268,-0.0943 -0.72156,0.54314 0.46482,1.96045 -10.33852,8.90104 -17.72522,11.38755 l -7,2.35634 -0.12053,3.37293 c -0.0663,1.85511 -0.17879,54.58088 -0.25,117.16838 L 693,739.09091 690.54545,741.54545 688.09091,744 H 490 291.90909 Z M 690,740.5 c 0,-0.275 -0.225,-0.5 -0.5,-0.5 -0.275,0 -0.5,0.225 -0.5,0.5 0,0.275 0.225,0.5 0.5,0.5 0.275,0 0.5,-0.225 0.5,-0.5 z M 340.02239,637 c -0.0236,-94.83309 -0.0194,-94.91596 4.97451,-97.4984 3.64262,-1.88367 114.18736,-2.28603 118.25994,-0.43044 5.47228,2.49334 5.22309,-1.85895 5.49234,95.92884 l 0.24918,90.5 H 571.74918 674.5 V 615.05953 504.61905 l -5.72386,-1.69918 c -7.18764,-2.13373 -15.0568,-6.65674 -14.14583,-8.13071 0.41439,-0.67051 0.21707,-0.81287 -0.50669,-0.36556 -2.95984,1.82928 -44.70118,-39.1158 -149.06126,-127.50054 L 489.94396,353.8398 C 444.91529,391.38188 401.29747,430.56074 357.03624,469 c -4.78121,4.125 -13.4027,11.59483 -19.15889,16.59963 -13.14675,11.43063 -17.0011,13.97375 -25.53429,16.84766 l -6.84306,2.30468 -0.25753,109.37401 c -0.14164,60.15571 -0.0392,109.94719 0.22772,110.64773 0.37255,0.97793 4.44333,1.21015 17.52972,1 L 340.0444,725.5 Z m 164.35188,25.28726 c -1.16915,-0.21659 -3.19415,-1.53081 -4.5,-2.92051 L 497.5,656.84004 497.22518,601.87346 c -0.29991,-59.98398 -0.28499,-60.15829 5.37006,-62.7349 C 504.38438,538.32337 524.1057,538 572.03128,538 h 66.93717 l 3.05736,2.75 3.05737,2.75 -0.0317,56.88562 c -0.0344,61.70128 0.24162,58.75665 -5.74168,61.25772 -3.00382,1.25562 -128.40313,1.85403 -134.93553,0.64392 z M 562,627 v -17 h -23 -23 v 17 17 h 23 23 z m 64.77361,-0.002 C 626.62313,617.647 626.1625,609.997 625.75,609.99807 625.3375,609.99913 615.1,610 603,610 h -22 v 17 17 h 23.02361 23.02362 z m -65,-53 C 561.62313,564.647 561.1625,556.997 560.75,556.99807 560.3375,556.99913 550.1,557 538,557 h -22 v 17 17 h 23.02361 23.02362 z M 627,574 v -17 h -23 -23 v 17 17 h 23 23 z M 503,543.5 c 0,-0.275 -0.225,-0.5 -0.5,-0.5 -0.275,0 -0.5,0.225 -0.5,0.5 0,0.275 0.225,0.5 0.5,0.5 0.275,0 0.5,-0.225 0.5,-0.5 z m -53,98.16667 c 0,-46.38334 -0.18724,-84.52084 -0.4161,-84.75 -0.22885,-0.22917 -20.70385,-0.29514 -45.5,-0.1466 L 359,557.04014 V 641.52007 726 h 45.5 45.5 z m -71.41111,14.2566 c -5.63159,-6.69276 -3.17536,-22.58452 3.84898,-24.90276 9.40015,-3.10234 16.1225,10.52256 11.11031,22.51843 -2.65464,6.35345 -10.55935,7.61337 -14.95929,2.38433 z M 344,542.5 c 0,-0.275 -0.225,-0.5 -0.5,-0.5 -0.275,0 -0.5,0.225 -0.5,0.5 0,0.275 0.225,0.5 0.5,0.5 0.275,0 0.5,-0.225 0.5,-0.5 z m 5,-3 c 0,-0.275 -0.225,-0.5 -0.5,-0.5 -0.275,0 -0.5,0.225 -0.5,0.5 0,0.275 0.225,0.5 0.5,0.5 0.275,0 0.5,-0.225 0.5,-0.5 z m -20,-48 c 0,-0.275 -0.225,-0.5 -0.5,-0.5 -0.275,0 -0.5,0.225 -0.5,0.5 0,0.275 0.225,0.5 0.5,0.5 0.275,0 0.5,-0.225 0.5,-0.5 z m -19.5,-8.01376 c 2.75,-1.24408 9.1134,-5.95975 14.22556,-10.38225 54.09823,-43.06989 104.75648,-93.03012 157.56335,-136.40802 7.50559,-6.08854 9.79731,-6.10558 17.13609,-0.12745 3.15305,2.56845 5.3145,5.04396 4.93716,5.65451 -0.39903,0.64565 -0.20634,0.7987 0.47523,0.37747 1.48806,-0.91968 157.49005,134.06067 156.49835,135.66527 -0.37375,0.60475 -0.16197,0.74487 0.50387,0.33336 0.63174,-0.39044 2.63799,0.42611 4.45833,1.81455 20.58148,15.69826 51.77156,-7.61495 50.16714,-25.91368 -2.04858,-23.3645 -9.93679,-24.31656 -68.8926,-75.90581 -0.30299,-0.26513 0.12194,0.16404 -0.2148,-0.11854 -40.98585,-34.39317 -40.85657,-34.00864 -72.70178,-63.7279 -0.52975,-0.49439 0.17095,0.0713 -0.49086,-0.34975 C 553.9929,302.19931 495.82969,246.64147 485.10735,255.47073 360.83633,357.80107 360.51086,357.64396 265.97906,443.7344 c -9.93502,9.04786 17.75661,51.40744 43.52094,39.75184 z M 341,481.5 c 0,-0.275 -0.225,-0.5 -0.5,-0.5 -0.275,0 -0.5,0.225 -0.5,0.5 0,0.275 0.225,0.5 0.5,0.5 0.275,0 0.5,-0.225 0.5,-0.5 z m -14,-3 c 0,-0.275 -0.225,-0.5 -0.5,-0.5 -0.275,0 -0.5,0.225 -0.5,0.5 0,0.275 0.225,0.5 0.5,0.5 0.275,0 0.5,-0.225 0.5,-0.5 z m -61,-7 c 0,-0.275 -0.225,-0.5 -0.5,-0.5 -0.275,0 -0.5,0.225 -0.5,0.5 0,0.275 0.225,0.5 0.5,0.5 0.275,0 0.5,-0.225 0.5,-0.5 z m 5,-39 c 0,-0.275 -0.225,-0.5 -0.5,-0.5 -0.275,0 -0.5,0.225 -0.5,0.5 0,0.275 0.225,0.5 0.5,0.5 0.275,0 0.5,-0.225 0.5,-0.5 z m 206,-68.99998 c 0,-0.275 -0.225,-0.5 -0.5,-0.5 -0.275,0 -0.5,0.225 -0.5,0.5 0,0.65297 1,0.65297 1,0 z m 178,0 c 0,-0.275 -0.225,-0.5 -0.5,-0.5 -0.275,0 -0.5,0.225 -0.5,0.5 0,0.275 0.225,0.5 0.5,0.5 0.275,0 0.5,-0.225 0.5,-0.5 z M 658,322.441 V 282 h -27 -27 v 17.94647 17.94646 c 39.36535,34.22017 51.70451,45.05988 51.83541,45.35734 C 657.50296,367.03963 658,357.66886 658,322.44098 Z M 462,356.5 c 0,-0.275 -0.225,-0.5 -0.5,-0.5 -0.275,0 -0.5,0.225 -0.5,0.5 0,0.275 0.225,0.5 0.5,0.5 0.275,0 0.5,-0.225 0.5,-0.5 z m 23,0 c 0,-0.275 -0.225,-0.5 -0.5,-0.5 -0.275,0 -0.5,0.225 -0.5,0.5 0,0.275 0.225,0.5 0.5,0.5 0.275,0 0.5,-0.225 0.5,-0.5 z m 13,-14 c 0,-0.275 -0.225,-0.5 -0.5,-0.5 -0.275,0 -0.5,0.225 -0.5,0.5 0,0.275 0.225,0.5 0.5,0.5 0.275,0 0.5,-0.225 0.5,-0.5 z m 37,-64 c 0,-0.275 -0.225,-0.5 -0.5,-0.5 -0.275,0 -0.5,0.225 -0.5,0.5 0,0.65297 1,0.65297 1,0 z m 54,-11 c 0,-0.275 -0.225,-0.5 -0.5,-0.5 -0.275,0 -0.5,0.225 -0.5,0.5 0,0.275 0.225,0.5 0.5,0.5 0.275,0 0.5,-0.225 0.5,-0.5 z m -70,-1 c 0,-0.275 -0.225,-0.5 -0.5,-0.5 -0.275,0 -0.5,0.225 -0.5,0.5 0,0.275 0.225,0.5 0.5,0.5 0.275,0 0.5,-0.225 0.5,-0.5 z m -50,-6 c 0,-0.275 -0.225,-0.5 -0.5,-0.5 -0.275,0 -0.5,0.225 -0.5,0.5 0,0.275 0.225,0.5 0.5,0.5 0.275,0 0.5,-0.225 0.5,-0.5 z"/>
</svg>
