<svg width="200" height="200" xmlns="http://www.w3.org/2000/svg">
    <path d="M 15,109 V 70 H 10.136364 5.2727273 L 2.6363636,67.363636 C 0.71735842,65.444631 0,63.698226 0,60.945424 0,53.553784 -6.3391634,58.614829 66.006476,8.2473491 L 77.860222,-0.00530176 87.680111,6.6975375 C 98.737903,14.245342 138.17123,41.711789 147.8197,48.586487 c 4.17908,2.977669 6.82085,5.702328 7.79925,8.043958 l 1.47955,3.541064 -1.08689,3.293326 c -1.69719,5.14253 -4.46425,7.046512 -10.11804,6.962122 L 141,70.353914 V 108.67696 147 h -3 -3 V 107.17431 67.348628 l -2.25,-2.104056 C 129.39943,62.111329 79.670653,27.726867 78.442969,27.694518 c -0.581368,-0.01532 -6.656368,3.792967 -13.5,8.462856 C 58.099336,40.827262 45.4125,49.473289 36.75,55.370766 L 21,66.093451 V 107.04673 148 h -3 -3 z m 95,20.5 V 111 H 92.5 75 V 107.5 104 H 96.5 118 v 3.5 c 0,2.44444 -0.45238,3.5 -1.5,3.5 H 115 v 18.5 18.5 h -2.5 -2.5 z m -68.298764,15.8679 c -1.160063,-1.16006 -0.825932,-1.97048 1.961777,-4.75819 1.464657,-1.46465 4.638805,-3.16052 7.053663,-3.76859 l 4.39065,-1.10557 -0.303663,-2.61778 L 54.5,130.5 l -8,-0.5 -8,-0.5 0.19148,-17 0.191481,-17 H 41.19148 43.5 l 0.276572,14.72195 0.276573,14.72196 13.723427,0.27804 L 71.5,125.5 l 0.313374,2.20287 0.313375,2.20286 -6.813375,0.29714 L 58.5,130.5 l -0.295241,2.5305 -0.295241,2.53049 4.603996,1.23138 c 4.598175,1.22983 9.85258,5.59598 9.183649,7.63116 -0.1946,0.59206 -1.389636,1.22794 -2.655636,1.41308 l -2.301816,0.3366 0.622693,-2.48101 0.622693,-2.481 -4.012785,-1.6056 C 61.76528,138.72252 59.293634,138 58.479764,138 c -1.734085,0 -1.975733,3.10403 -0.366896,4.71287 C 59.580926,144.18093 58.379021,146 55.940983,146 53.916856,146 53.26428,143.57273 55,142.5 c 1.718132,-1.06186 1.14489,-4.50013 -0.75,-4.49845 -3.308515,0.003 -8.75,3.41216 -8.75,5.48209 0,1.98207 -2.473871,3.20916 -3.798764,1.88426 z M 76,134.58375 V 123.1675 L 63.90947,122.83375 51.818941,122.5 49.90947,120.13922 48,117.77843 V 102.52407 87.269717 L 50.07258,84.634859 52.14516,82 h 5.356727 5.356727 l 4.364297,5.75 4.364297,5.75 8.456396,0.5 c 4.651018,0.275 9.018896,0.864058 9.706396,1.309017 1.907105,1.234304 1.495876,3.405357 -0.972506,5.134283 -2.59223,1.81566 -15.744913,2.17969 -18.843235,0.52152 L 68,99.929632 V 106.46482 113 h 7 7 l 2,2 2,2 v 12.56574 c 0,6.91116 -0.465833,13.43616 -1.035184,14.5 -0.756239,1.41305 -2.103558,1.93426 -5,1.93426 H 76 Z m 16.522525,-33.5473 c -1.381799,-2.235802 0.928795,-3.036844 8.786495,-3.046123 l 8.19098,-0.0097 3.39756,-7.490346 c 1.86866,-4.119691 4.00083,-7.991019 4.73817,-8.602952 l 1.3406,-1.112604 0.61362,1.599069 c 0.35057,0.913567 -1.25193,5.3559 -3.73816,10.362624 L 111.5,101.5 l -9.16846,0.28645 c -5.561461,0.17375 -9.42046,-0.12131 -9.809015,-0.75 z M 58.703929,78.403886 C 45.924075,69.953862 61.222606,53.06876 71.076923,62.923077 c 4.638893,4.638893 3.646985,12.036656 -2.066427,15.411652 -3.45569,2.041326 -6.62996,2.062625 -10.306567,0.06916 z M 129.75,27.28156 120,20.694282 V 12.700405 4.706528 C 126.99113,5.3123969 126.97247,5.3640343 141,6 v 14 c 0,7.7 -0.3375,13.970488 -0.75,13.934419 -0.4125,-0.03607 -5.1375,-3.029857 -10.5,-6.652859 z"/>
</svg>
