<?xml version="1.0" encoding="UTF-8" standalone="no"?>
<svg
   width="200"
   height="200"
   xmlns="http://www.w3.org/2000/svg">
  <defs
     id="defs1" />
  <sodipodiNamedview
     pagecolor="#ffffff"
     bordercolor="#111111"
     box-shadow= "0px 0px 18px 6px rgba(255, 255, 255, 0.747)"
     borderopacity="1"/>
  <path
     d="m 23.743744,170.73004 c -1.536114,-3.71773 0.02332,-5.31411 5.511199,-5.64177 l 5.36281,-0.32019 V 122.84687 80.925678 l 9.332024,-0.30512 c 8.700398,-0.284464 9.35649,-0.4651 9.693484,-2.668815 0.350488,-2.29195 0.07004,-2.363695 -9.239507,-2.363695 -13.209313,0 -13.179464,0.01785 -13.179464,-7.878981 0,-5.052573 0.420265,-6.753439 1.789246,-7.241323 3.483116,-1.241332 33.882688,-0.705029 35.312625,0.622975 2.001412,1.858773 1.738727,11.845074 -0.354025,13.458109 -1.477534,1.13884 -1.670763,6.216955 -1.41394,37.159852 l 0.297456,35.84075 2.545098,0.3357 c 1.399807,0.18463 2.644496,0.18463 2.765965,0 0.121477,-0.18464 0.503246,-9.49394 0.848371,-20.68736 l 0.627495,-20.35167 15.270585,-10.215507 15.270584,-10.215524 0.32777,8.82907 c 0.30141,8.118691 0.11939,8.987801 -2.26231,10.801951 -2.457759,1.87209 -2.490089,2.06728 -0.63275,3.82095 1.86453,1.76047 2.40072,1.56317 11.31154,-4.16235 5.14482,-3.30573 12.53559,-8.152926 16.42393,-10.771551 l 7.06972,-4.761145 v 6.727385 c 0,5.393211 -0.44866,7.104461 -2.26231,8.628801 -1.24427,1.04579 -2.26231,2.55212 -2.26231,3.34739 0,3.77927 4.21168,2.06095 19.48372,-7.94914 l 16.14765,-10.584001 0.29699,37.199051 0.29699,37.19904 2.53089,0.33396 c 1.97808,0.26103 2.5309,1.02236 2.5309,3.48558 v 3.15159 l -74.405779,0.2702 c -64.112535,0.23281 -74.492777,0.0596 -75.034647,-1.25181 z m 70.825197,-43.1407 v -5.77792 h -6.221355 -6.22135 v 5.77792 5.77792 h 6.22135 6.221355 z m 31.672319,0 v -5.77792 h -5.65577 -5.65577 v 5.77792 5.77792 h 5.65577 5.65577 z m 31.67233,0 v -5.77792 h -6.22135 -6.22136 v 5.77792 5.77792 h 6.22136 6.22135 z M 89.388481,59.67823 c -3.123485,-1.407591 -6.30711,-6.558882 -5.89554,-9.539297 0.181505,-1.314478 -0.17899,-2.492865 -0.801125,-2.618641 -0.65706,-0.132835 -1.0777,2.15704 -1.003605,5.463485 0.120965,5.398679 -0.03335,5.724993 -2.9935,6.328804 -3.49404,0.712724 -11.092912,-1.785119 -13.159012,-4.325534 -1.186091,-1.458388 -1.610656,-1.446082 -4.186448,0.121351 -7.405623,4.506501 -14.861096,-5.252117 -8.515195,-11.145714 1.724038,-1.601154 3.251131,-2.048708 5.539847,-1.62359 2.705938,0.502613 3.360277,0.13723 4.556185,-2.544154 1.84691,-4.141029 6.895624,-7.355401 12.685783,-8.076669 3.30446,-0.411632 5.506555,-1.480361 7.434275,-3.608028 1.506465,-1.662733 4.18017,-3.715279 5.941585,-4.561215 4.15637,-1.996152 12.712229,-1.968089 16.925769,0.05551 3.77316,1.812104 7.03771,6.905153 6.52784,10.184135 -0.18893,1.215034 0.23202,2.391871 0.93544,2.615191 1.58773,0.504064 2.94371,-4.128274 1.92801,-6.586486 -0.66574,-1.611227 -0.12927,-1.750331 4.77171,-1.237291 4.2832,0.448366 6.21417,1.297705 8.60853,3.786442 6.22266,6.467987 5.06771,16.204725 -2.48794,20.974598 -3.27042,2.064608 -4.94831,2.395168 -10.14021,1.997721 -5.60211,-0.428849 -6.5912,-0.176747 -9.93697,2.532754 -3.00601,2.434351 -4.73422,2.995428 -9.049234,2.937908 -2.93349,-0.0391 -6.39229,-0.548184 -7.686195,-1.131285 z"
     style="fill:#ffffff" />
</svg>
