<svg
   width="200"
   height="200"
   xmlns="http://www.w3.org/2000/svg">
  <path
     d="m 2.8189787,179.80482 c 3.4975759,0.0698 3.4840191,0.0271 13.5973743,0 V 115.32524 51.334028 L 44.641,50.868274 c -0.03026,-3.789506 0.108362,-3.764286 0,-8.074274 0,0 -17.210166,0.392326 -29.405337,0.392326 L 15.366564,21.61226 C 43.794293,21.412268 45.814562,21.477328 62.573,21.056351 c 0.02812,11.905623 0,20.355649 0,20.355649 -0.668546,0.06444 -3.926569,0 -3.926569,0 v 112.13308 h 3.334396 c 1.849613,0 5.39752,0.28183 5.55664,0 0.159131,-0.28184 0,-14.48388 0,-31.57834 V 90.900633 C 81.003579,80.433828 94.435091,69.90711 107.86889,59.384276 l -0.13988,18.725238 c -0.11679,15.634729 -0.10993,15.802172 0.28602,15.478686 17.91247,-14.634211 17.78728,-14.601821 41.76076,-34.203924 V 93.5882 c 0,0.41282 29.43593,-23.894839 40.74876,-34.204085 V 180.96998 l 5.32797,9.41624 -95.388,-0.0583 c -83.985647,-0.0513 -97.605043,0.02 -97.605043,0.02 z M 96.950251,122.56446 v -8.8198 H 88.8005 80.650755 v 8.8198 8.81978 h 8.149745 8.149751 z m 39.489599,0 v -8.8198 h -7.40885 -7.40886 v 8.8198 8.81978 h 7.40886 7.40885 z m 41.4896,0 v -8.8198 h -8.14973 -8.14976 v 8.8198 8.81978 h 8.14976 8.14973 z"
     style="fill:#ffffff;stroke-width:1"/>
</svg>
