<svg
   width="850"
   height="850"
   xmlns="http://www.w3.org/2000/svg">
  <path
     d="M 80.367661,845.44716 76.142815,841.6984 75.958403,667.90162 C 75.795578,514.48971 75.608891,488.32434 74.645445,483.9171 74.522381,483.35383 71.907383,482.403 68.834488,481.80412 29.080329,474.05656 -0.69097683,434.47538 5.2409666,397.25608 9.3809377,371.2803 37.948846,345.48725 59.961704,328.5469 185.55457,231.89483 261.94651,172.9096 379.52127,84.534915 c 25.00386,-18.794047 72.35279,-16.857618 95.97535,2.216699 80.36574,64.892196 41.20347,30.054946 95.02683,74.093516 1.58114,1.29373 2.0391,-0.33032 9.95905,5.84907 l 7.72621,6.02818 0.86062,-24.10886 c 1.32001,-36.9789 -5.2291,-34.27191 81.54837,-33.70714 l 66.77836,0.43462 4.15259,4.28516 4.15262,4.28517 v 84.61696 84.61696 l 7.03613,5.78881 c 3.86989,3.18387 8.14628,6.34656 9.50298,7.02817 1.35673,0.68162 1.93901,2.05617 1.29403,3.05456 -0.64503,0.99836 -0.55108,1.31649 0.20877,0.70694 1.16869,-0.93751 58.7269,40.11774 69.91914,56.65996 18.90467,27.94139 17.14709,61.0151 -4.6378,87.27315 -4.22786,5.09601 -8.45874,8.84226 -9.402,8.32502 -0.9432,-0.51725 -1.50203,-0.14402 -1.24196,0.82952 0.80005,2.99414 -17.79496,13.59432 -30.5092,17.39191 l -12.04857,3.59877 -0.20746,5.15137 c -0.11408,2.83328 -0.30778,83.35995 -0.43034,178.94819 l -0.22285,173.79678 -4.22483,3.74876 -4.22477,3.74877 H 425.55249 84.592487 Z m 689.430859,-1.5967 c 0,-0.41999 -0.38736,-0.76363 -0.86067,-0.76363 -0.47335,0 -0.8606,0.34364 -0.8606,0.76363 0,0.42001 0.38725,0.76364 0.8606,0.76364 0.47331,0 0.86067,-0.34363 0.86067,-0.76364 z m -602.392,-158.0728 c -0.0405,-144.83608 -0.0331,-144.96263 8.56231,-148.90674 6.26978,-2.87687 196.54269,-3.49137 203.55251,-0.6574 9.41907,3.80802 8.99018,-2.83911 9.4536,146.50959 l 0.42887,138.21826 H 566.26165 743.11939 V 652.26855 483.59573 l -9.85211,-2.5951 c -12.37156,-3.2588 -25.9162,-10.16667 -24.34817,-12.41783 0.71325,-1.02405 0.37358,-1.24146 -0.87212,-0.5583 -5.0946,2.79381 -76.94104,-59.74053 -256.56871,-194.7282 l -26.02224,-19.98171 c -77.5047,57.33702 -152.58099,117.17385 -228.76477,175.88111 -8.22953,6.3 -23.0691,17.70849 -32.97681,25.35217 -22.62863,17.45771 -29.26284,21.34175 -43.9504,25.73099 l -11.7785,3.51988 -0.44326,167.04403 c -0.24377,91.87423 -0.067,167.91944 0.39197,168.98935 0.64121,1.49356 7.64799,1.84823 30.17266,1.52726 l 29.33748,-0.41801 z m 282.8874,38.62056 c -2.01242,-0.33079 -5.49789,-2.33796 -7.74556,-4.46042 l -4.08666,-3.85898 -0.473,-83.949 c -0.51625,-91.61194 -0.49057,-91.87816 9.24309,-95.81335 3.07953,-1.24501 37.02446,-1.73889 119.5154,-1.73889 h 115.21427 l 5.26236,4.19998 5.26252,4.20003 -0.0543,86.8799 c -0.0589,94.23472 0.41588,89.73748 -9.88266,93.55729 -5.17034,1.91767 -221.01134,2.83161 -232.2551,0.98344 z m 99.18713,-53.89331 v -25.96364 h -39.58832 -39.58827 v 25.96364 25.96366 h 39.58827 39.58832 z m 111.4903,-0.003 c -0.25904,-14.28154 -1.05191,-25.96518 -1.76188,-25.96354 -0.71007,10e-4 -18.33113,0.003 -39.158,0.003 h -37.86705 v 25.96364 25.96365 h 39.62895 39.62887 z m -111.87998,-80.946 c -0.25901,-14.28153 -1.05188,-25.96518 -1.76188,-25.96355 -0.70998,10e-4 -18.33109,0.003 -39.15798,0.003 h -37.86705 v 25.96364 25.96366 h 39.62893 39.6289 z m 112.26957,0.003 v -25.96365 h -39.58825 -39.58827 v 25.96365 25.96367 h 39.58827 39.58825 z M 447.9285,542.97759 c 0,-0.42 -0.38733,-0.76365 -0.86064,-0.76365 -0.47335,0 -0.86061,0.34365 -0.86061,0.76365 0,0.42 0.38726,0.76363 0.86061,0.76363 0.47331,0 0.86064,-0.34363 0.86064,-0.76363 z m -91.22522,149.92735 c 0,-70.84005 -0.32227,-129.08644 -0.7162,-129.43643 -0.39391,-0.35001 -35.63609,-0.45077 -78.31594,-0.22391 l -77.59976,0.41248 v 129.02395 129.02398 h 78.31595 78.31595 z m -122.91493,21.77373 c -9.69328,-10.22168 -5.46553,-34.49273 6.625,-38.03334 16.17978,-4.73812 27.75053,16.07083 19.12338,34.39181 -4.56924,9.70346 -18.1751,11.62769 -25.74838,3.64153 z M 174.2529,541.45031 c 0,-0.42 -0.38723,-0.76363 -0.86058,-0.76363 -0.47338,0 -0.86061,0.34363 -0.86061,0.76363 0,0.42 0.38723,0.76363 0.86061,0.76363 0.47335,0 0.86058,-0.34363 0.86058,-0.76363 z m 8.60615,-4.58183 c 0,-0.41999 -0.38725,-0.76363 -0.86059,-0.76363 -0.47334,0 -0.86063,0.34364 -0.86063,0.76363 0,0.42 0.38729,0.76364 0.86063,0.76364 0.47334,0 0.86059,-0.34364 0.86059,-0.76364 z m -34.42456,-73.30911 c 0,-0.42002 -0.3873,-0.76364 -0.86064,-0.76364 -0.47332,0 -0.8606,0.34362 -0.8606,0.76364 0,0.42 0.38728,0.76363 0.8606,0.76363 0.47334,0 0.86064,-0.34363 0.86064,-0.76363 z m -33.564,-12.23921 c 4.73338,-1.90006 15.68623,-9.10218 24.48548,-15.85653 93.11549,-65.77951 180.30995,-142.08244 271.20272,-208.33238 12.91884,-9.29885 16.86344,-9.32488 29.49513,-0.19464 5.42718,3.92273 9.1475,7.7035 8.498,8.63598 -0.6868,0.98609 -0.35517,1.21984 0.81798,0.5765 2.5613,-1.4046 271.07665,204.74731 269.36967,207.19799 -0.64331,0.92361 -0.27887,1.13761 0.86731,0.50912 1.08736,-0.59631 4.54058,0.65079 7.67375,2.77132 35.42549,23.97554 89.11075,-11.63012 86.3492,-39.57728 -3.52609,-35.68398 -17.10351,-37.13805 -118.58008,-115.92894 -0.52148,-0.40493 0.21,0.25054 -0.36962,-0.18103 -70.54611,-52.52778 -70.32359,-51.94051 -125.13649,-97.32994 -0.91182,-0.75508 0.2942,0.10885 -0.84489,-0.53417 C 535.69901,174.44542 435.58672,89.593413 417.1311,103.07811 203.23214,259.36452 202.6719,259.12457 39.960946,390.60823 c -17.10045,13.81856 30.563212,78.51321 74.909544,60.71193 z m 54.21874,-3.03354 c 0,-0.42001 -0.38728,-0.76363 -0.8606,-0.76363 -0.47336,0 -0.86068,0.34362 -0.86068,0.76363 0,0.42001 0.38732,0.76364 0.86068,0.76364 0.47332,0 0.8606,-0.34363 0.8606,-0.76364 z m -24.09721,-4.58181 c 0,-0.42001 -0.38728,-0.76363 -0.86065,-0.76363 -0.47332,0 -0.86061,0.34362 -0.86061,0.76363 0,0.42001 0.38729,0.76363 0.86061,0.76363 0.47337,0 0.86065,-0.34362 0.86065,-0.76363 z M 39.996987,433.01389 c 0,-0.42001 -0.387276,-0.76363 -0.860613,-0.76363 -0.473341,0 -0.860618,0.34362 -0.860618,0.76363 0,0.42 0.387277,0.76364 0.860618,0.76364 0.473337,0 0.860613,-0.34364 0.860613,-0.76364 z m 8.606151,-59.56368 c 0,-0.41998 -0.387276,-0.76363 -0.860618,-0.76363 -0.473335,0 -0.860611,0.34365 -0.860611,0.76363 0,0.42001 0.387276,0.76365 0.860611,0.76365 0.473342,0 0.860618,-0.34364 0.860618,-0.76365 z M 403.1765,268.06837 c 0,-0.41999 -0.3873,-0.76362 -0.86064,-0.76362 -0.47332,0 -0.86058,0.34363 -0.86058,0.76362 0,0.99727 1.72122,0.99727 1.72122,0 z m 306.37897,0 c 0,-0.41999 -0.3873,-0.76362 -0.86072,-0.76362 -0.47328,0 -0.86059,0.34363 -0.86059,0.76362 0,0.42002 0.38731,0.76365 0.86059,0.76365 0.47342,0 0.86072,-0.34363 0.86072,-0.76365 z m 5.16368,-62.70835 v -61.76447 h -46.47326 -46.4732 v 27.40917 27.40915 c 67.75687,52.26357 88.99537,68.81878 89.22068,69.27307 2.87023,5.78738 3.72578,-8.52434 3.72578,-62.32695 z m -337.36109,52.0174 c 0,-0.41998 -0.38728,-0.76363 -0.86064,-0.76363 -0.47333,0 -0.86061,0.34365 -0.86061,0.76363 0,0.42002 0.38728,0.76365 0.86061,0.76365 0.47336,0 0.86064,-0.34363 0.86064,-0.76365 z m 39.58825,0 c 0,-0.41998 -0.38725,-0.76363 -0.86056,-0.76363 -0.47338,0 -0.86066,0.34365 -0.86066,0.76363 0,0.42002 0.38728,0.76365 0.86066,0.76365 0.47331,0 0.86056,-0.34363 0.86056,-0.76365 z m 22.37601,-21.38182 c 0,-0.42001 -0.38728,-0.76363 -0.86062,-0.76363 -0.47331,0 -0.86062,0.34362 -0.86062,0.76363 0,0.42 0.38731,0.76363 0.86062,0.76363 0.47334,0 0.86062,-0.34363 0.86062,-0.76363 z m 63.68553,-97.7455 c 0,-0.42001 -0.38728,-0.76363 -0.86066,-0.76363 -0.47333,0 -0.86058,0.34362 -0.86058,0.76363 0,0.99726 1.72124,0.99726 1.72124,0 z m 92.94638,-16.80001 c 0,-0.41999 -0.38726,-0.76364 -0.86061,-0.76364 -0.47335,0 -0.86061,0.34365 -0.86061,0.76364 0,0.42 0.38726,0.76365 0.86061,0.76365 0.47335,0 0.86061,-0.34365 0.86061,-0.76365 z m -120.48609,-1.52728 c 0,-0.42 -0.38728,-0.76363 -0.8606,-0.76363 -0.47337,0 -0.86058,0.34363 -0.86058,0.76363 0,0.42001 0.38721,0.76364 0.86058,0.76364 0.47332,0 0.8606,-0.34363 0.8606,-0.76364 z m -86.06151,-9.16364 c 0,-0.41999 -0.38726,-0.76363 -0.86057,-0.76363 -0.47337,0 -0.86067,0.34364 -0.86067,0.76363 0,0.42001 0.3873,0.76364 0.86067,0.76364 0.47331,0 0.86057,-0.34363 0.86057,-0.76364 z"
     style="fill:#ffffff;stroke-width:1" />
</svg>
