<svg
   width="225"
   height="225"
   xmlns="http://www.w3.org/2000/svg"
   fill="white">
  <path
     d="m 45.320197,189 -23.179802,-0.5 -2.820198,-2.09195 C 17.769089,185.25748 15.4875,182.82843 14.25,181.01017 L 12,177.70423 12,117.71814 C 12,73.175079 12.3164,56.672396 13.229008,53.61602 15.10855,47.321323 23.184565,39.57441 29.931501,37.594163 36.23746,35.743344 60.19894,35.372045 66.177309,37.03251 c 6.318635,1.754972 12.888487,6.991302 16.190623,12.904314 2.788979,4.994119 3.069764,6.378377 3.44831,17 L 86.228344,78.5 146.76615,78.23457 c 67.3917,-0.295482 64.20276,-0.608984 66.17866,6.505974 1.38607,4.991084 1.39532,66.494596 0.0108,71.479976 C 211.12789,162.80135 210.30223,163 184.77749,163 169.35561,163 162,163.34336 162,164.06327 c 0,0.5848 1.85573,5.5348 4.12384,11 L 170.24769,185 h 2.90754 c 2.66109,0 4.90462,2.27349 3.56524,3.61286 -0.38726,0.38726 -50.64423,0.73407 -61.54379,0.4247 -2.87232,-0.0815 -0.5914,-3.54701 2.65745,-4.03756 l 3.31143,-0.5 3.92058,-9.5 c 2.15632,-5.225 3.92357,-10.04545 3.92722,-10.71211 0.005,-0.90299 -5.44769,-1.28554 -21.38029,-1.5 L 86.22615,162.5 85.787109,170.10037 C 85.135974,181.37238 81.096269,186.9588 72.315245,188.7303 70.21686,189.15364 58.069089,189.275 45.320197,189 Z m 28.874575,-5.10424 2.063289,-1.10424 L 65.69926,172.14576 55.14046,161.5 61.660454,137 68.180448,112.5 74.590224,105.9749 81,99.449808 81,78.192785 c 0,-16.300203 -0.337879,-22.06568 -1.448973,-24.724904 -0.796936,-1.907334 -1.809436,-3.46384 -2.25,-3.458901 -0.440565,0.0049 -2.547998,6.41744 -4.683184,14.25 -6.247357,22.91735 -9.424219,32.173652 -12.499256,36.41862 -7.074203,9.76565 -19.14311,7.90713 -25.207084,-3.881713 C 33.863571,94.758625 30.325336,83.566678 27.048758,71.924893 23.772181,60.283108 20.821324,50.487991 20.491299,50.157966 19.671644,49.33831 18.208996,51.792219 17.009164,56 16.460259,57.925 16.008644,68.214855 16.005577,78.866343 L 16,98.232687 l 5.548908,5.993483 c 3.051899,3.29642 6.159588,6.95656 6.905975,8.13366 0.746387,1.17709 4.180704,12.85088 7.631814,25.94176 l 6.274747,23.80158 -10.180722,10.21549 C 26.581325,177.93718 22,182.83097 22,183.19375 c 0,1.32714 3.956425,1.57652 26.815741,1.69025 15.315458,0.0762 24.023714,-0.2629 25.379031,-0.98824 z M 44,150 c -1.831703,-1.8317 -2,-3.33333 -2,-17.84501 0,-13.82773 0.222798,-16.04423 1.75,-17.40975 3.053745,-2.73045 7.372116,-2.62312 10.25,0.25476 1.820609,1.82061 2,3.33333 2,16.86514 0,13.52447 -0.186924,15.10278 -2.07258,17.5 C 51.391659,152.58884 46.877518,152.87752 44,150 Z m 6.8,-3.2 c 1.407646,-1.40765 1.683303,-26.48904 0.31486,-28.64839 -0.469983,-0.74162 -1.700592,-1.18603 -2.734687,-0.98758 -1.716643,0.32943 -1.904486,1.57321 -2.159707,14.30024 -0.153743,7.66668 -0.05537,14.52359 0.218616,15.23757 0.624297,1.6269 2.783579,1.6755 4.360918,0.0982 z m 114.20294,37.45 c 0.002,-0.4125 -1.89545,-5.37633 -4.21571,-11.03073 l -4.21866,-10.28074 -11.00806,0.28074 -11.00807,0.28073 -4.25322,10 c -2.33928,5.5 -4.26358,10.3375 -4.27622,10.75 -0.0126,0.4125 8.752,0.75 19.477,0.75 10.725,0 19.50132,-0.3375 19.50294,-0.75 z M 28.270849,170.23022 c 5.235039,-5.25941 8.711949,-9.56243 8.686177,-10.75 -0.02364,-1.08912 -2.617695,-11.48731 -5.764577,-23.10708 L 25.470846,115.24629 20.779382,109.87314 16.087917,104.5 16.043959,139.81574 C 16.002531,173.09838 16.418532,179 18.806033,179 c 0.404616,0 4.663783,-3.9464 9.464816,-8.76978 z M 80.212827,178.75 c 0.497827,-0.58478 1.237224,-72.75137 0.745381,-72.75072 -0.297986,4e-4 -2.395916,1.91322 -4.662069,4.25072 l -4.120276,4.25 -6.157726,22.91113 -6.157725,22.91112 9.300043,9.33888 c 8.285424,8.32001 10.297978,9.97503 11.052372,9.08887 z M 207.06574,157.96482 209,156.92963 V 120.5 84.070368 l -1.93426,-1.035184 C 205.79659,82.355955 185.31449,82 147.5,82 109.68551,82 89.203409,82.355955 87.934259,83.035184 L 86,84.070368 v 36.415122 36.41513 l 1.75,1.01928 c 2.430103,1.41541 116.6746,1.45841 119.31574,0.0449 z M 92.07258,151.36514 90,148.73028 V 120.5 L 90,92.269717 92.07258,89.634859 94.14516,87 147.5,87 l 53.35484,0 2.07258,2.634859 L 205,92.269717 205,120.5 v 28.23028 l -2.07258,2.63486 L 200.85484,154 H 147.5 94.14516 Z M 199.5,120.5 v -29 L 148,91.238425 96.5,90.976849 95.25,92.679554 c -1.605738,2.187278 -1.79622,52.431306 -0.210011,55.395166 l 1.039989,1.94324 51.710012,-0.25898 L 199.5,149.5 Z m -66.06791,23.39012 C 132.67195,142.66019 159.71497,115 161.67759,115 c 3.77068,0 1.36543,3.43293 -11.28726,16.10988 C 142.76538,138.74945 135.98482,145 135.32241,145 c -0.6624,0 -1.51305,-0.49945 -1.89032,-1.10988 z m -2,-19 C 130.67195,123.66019 157.71497,96 159.67759,96 c 3.77068,0 1.36543,3.432933 -11.28726,16.10988 C 140.76538,119.74945 133.98482,126 133.32241,126 c -0.6624,0 -1.51305,-0.49945 -1.89032,-1.10988 z M 53.044466,101.47701 C 57.481712,99.182417 60.25929,92.581408 67.142153,67.973373 L 73.367529,45.716025 71.152527,43.922426 C 67.544081,41.000483 58.699671,39.738887 45.0517,40.199316 34.538793,40.55398 31.801147,40.985909 28.197555,42.85846 25.083107,44.476834 24.035092,45.564372 24.40207,46.797079 24.680898,47.733686 27.464574,57.725 30.588016,69 c 6.374742,23.01154 8.337124,27.917777 12.601769,31.50624 3.419998,2.87774 5.727449,3.10504 9.854681,0.97077 z M 43.888053,92.500358 C 35.725296,88.063984 39.211502,75 48.558133,75 c 8.565531,0 12.613193,9.98252 6.51879,16.076923 -3.25365,3.253651 -6.954953,3.724526 -11.18887,1.423435 z m 7.889441,-4.057062 C 52.999872,87.587109 54,85.935042 54,84.772037 54,82.084933 51.244857,79 48.845012,79 46.624061,79 43,82.410144 43,84.5 c 0,1.831526 3.520064,5.5 5.277494,5.5 0.702621,0 2.277621,-0.700517 3.5,-1.556704 z M 46.374274,68.310552 C 43.247522,67.69706 39.999781,63.773499 39.361149,59.838074 38.230394,52.870047 46.495083,47.136177 52.897367,50.446926 56.539197,52.33019 58,54.778799 58,59 c 0,4.42233 -1.63277,6.948615 -5.548373,8.584658 -1.863064,0.778438 -3.514343,1.35406 -3.669508,1.27916 -0.155166,-0.0749 -1.238696,-0.32387 -2.407845,-0.553266 z m 6.054297,-5.881981 C 53.292857,61.564286 54,60.184702 54,59.36283 54,53.863483 47.421955,51.900189 44.408043,56.5 l -1.638063,2.5 1.638063,2.5 c 1.883427,2.874473 5.639742,3.309358 8.020528,0.928571 z"/>
</svg>
