<?xml version="1.0" standalone="no"?>
<!DOCTYPE svg PUBLIC "-//W3C//DTD SVG 20010904//EN"
 "http://www.w3.org/TR/2001/REC-SVG-20010904/DTD/svg10.dtd">
<svg version="1.0" xmlns="http://www.w3.org/2000/svg"
 width="512.000000pt" height="512.000000pt" viewBox="0 0 512.000000 512.000000"
 preserveAspectRatio="xMidYMid meet">

<g transform="translate(0.000000,512.000000) scale(0.100000,-0.100000)"
fill="#000000" stroke="none">
<path d="M2351 5109 c-616 -55 -1153 -303 -1587 -734 -77 -77 -167 -174 -200
-215 -246 -312 -420 -677 -503 -1056 -76 -344 -74 -759 5 -1109 81 -362 260
-733 498 -1035 144 -182 400 -412 616 -553 332 -215 766 -364 1149 -393 l91
-7 0 987 0 986 -330 0 -330 0 0 390 0 390 330 0 330 0 0 258 c0 472 24 641
115 828 153 316 438 484 850 501 119 5 475 -9 588 -24 l47 -6 0 -348 0 -349
-257 0 c-280 0 -326 -6 -408 -55 -25 -14 -56 -43 -70 -63 -48 -73 -55 -131
-55 -449 l0 -293 380 0 380 0 0 -22 c-1 -13 -22 -187 -48 -388 l-48 -365 -332
-3 -332 -2 0 -945 0 -944 53 16 c306 90 619 253 877 457 109 86 344 326 426
436 284 380 448 773 510 1230 23 169 23 491 0 660 -62 457 -226 850 -510 1230
-82 110 -317 350 -426 436 -312 246 -675 419 -1056 503 -214 48 -540 69 -753
50z"/>
</g>
</svg>
