<svg
   width="225"
   height="225"
   xmlns="http://www.w3.org/2000/svg">
  <path
     style="fill:#ff0000;stroke:#dbbc4d;stroke-width:0;stroke-miterlimit:5;paint-order:fill markers stroke"
     d="M 106.29015,220.50243 C 100.26112,220.30829 93.252542,219.74086 90.426833,219.21815 80.902074,217.45618 66.040738,212.10652 57.807635,207.47616 47.122441,201.4667 35.883767,192.98051 29.507979,186.10739 18.289232,174.01357 11.091861,162.24733 5.2117669,146.38807 2.0960924,137.98475 0.33058846,128.30264 -0.09834653,117.26715 -0.60097286,104.33575 0.54224307,93.130494 3.4394185,82.591635 6.4865071,71.507448 13.603225,57.163437 20.5417,48.121339 30.844626,34.69476 40.912216,25.920359 56.770287,16.546352 62.23805,13.314254 72.928271,8.9043773 80.121973,6.9134313 91.577364,3.7430113 99.834628,2.7439015 114.58159,2.7439015 c 13.63649,0 20.49874,0.999495 32.52117,4.7367461 5.5472,1.7243833 9.88285,3.4622014 16.03157,6.4257764 6.34594,3.058625 10.04795,5.196848 15.42778,8.910828 7.24333,5.000469 10.70954,7.936091 16.56329,14.027867 6.08561,6.333073 9.68623,10.992576 14.75628,19.095892 5.74431,9.180978 11.77365,23.621814 13.64489,32.680848 1.13091,5.474906 1.34276,9.731258 1.34276,26.976991 v 16.1799 l -1.79944,5.95799 c -5.20292,17.22686 -14.25905,33.84771 -24.70452,45.3406 -3.0729,3.38104 -10.79508,10.68964 -13.7314,12.99599 -17.11001,13.43914 -40.35394,23.01014 -59.09955,24.33501 -3.44537,0.2435 -13.13354,0.29087 -19.24427,0.094 z m 37.10237,-60.33717 c 24.92898,-0.26156 32.50226,-0.51035 34.95447,-1.14832 0.63621,-0.16551 1.6469,-0.73963 2.24596,-1.2758 l 1.08922,-0.97487 -21.66778,-20.94257 -21.66779,-20.94256 -5.40975,5.00267 c -5.79744,5.36119 -9.72148,8.63422 -12.10325,10.09529 -3.56062,2.18423 -11.53561,2.41599 -15.43391,0.44853 -2.1569,-1.08858 -6.86689,-4.95874 -14.479372,-11.89758 -2.033222,-1.85328 -3.814894,-3.36961 -3.959266,-3.36961 -0.344821,0 -43.315124,41.52182 -43.138555,41.68439 0.07461,0.0687 1.204206,0.98303 2.51021,2.03182 l 2.374552,1.90692 34.431004,-0.17368 c 18.937057,-0.0956 46.051467,-0.29561 60.254257,-0.44463 z M 48.608781,143.07532 c 9.943314,-9.28947 33.787434,-32.33534 33.787434,-32.65632 0,-0.39173 -39.871732,-38.84865 -40.27786,-38.84865 -0.212481,0 -0.381826,6.285495 -0.532246,19.755213 -0.288581,25.841187 0.1223,57.387767 0.747448,57.387767 0.132201,0 2.956054,-2.53711 6.275224,-5.63801 z M 183.86645,99.029236 c 0.0231,-15.417843 -0.0587,-28.032439 -0.18156,-28.032439 -0.12289,0 -9.33922,8.808084 -20.48075,19.573521 l -20.25731,19.573522 12.98606,12.4823 c 7.14233,6.86529 16.2585,15.57568 20.25813,19.35644 l 7.27207,6.87414 0.18075,-10.89753 c 0.0994,-5.99362 0.19959,-23.51211 0.22261,-38.929954 z m -39.99492,0.716943 c 33.77539,-32.713924 36.28552,-35.398729 33.68518,-36.029294 -4.57272,-1.108849 -125.197191,-1.108849 -129.769911,0 -2.566,0.622238 -0.01214,3.357733 33.101463,35.455737 L 108.03256,125.4844 h 4.63282 4.6328 z"
     id="path2" />
</svg>
