<svg
   width="500"
   height="500"
   xmlns="http://www.w3.org/2000/svg">
  <path
     d="M 3.8859151,451.71222 C 0.31215809,449.64107 -8.5939596e-7,443.73611 -8.5939596e-7,378.20424 -8.5939596e-7,325.72892 0.70230184,306.2495 2.6646273,304.29694 c 1.4949893,-1.48753 8.6610847,-2.65136 16.3255467,-2.65136 10.551408,0 15.378339,1.14997 21.205999,5.05207 12.252474,8.20406 13.457474,15.32376 12.674176,74.88482 -0.642367,48.84496 -0.993387,52.73236 -5.286944,58.55081 -2.52939,3.42774 -8.025184,7.97067 -12.212877,10.09542 -8.344041,4.23353 -25.356359,5.03514 -31.4846129,1.48352 z M 68.836226,377.87214 v -20.98992 h 18.57499 c 15.429514,0 19.565754,-0.77545 24.425754,-4.57931 5.25422,-4.11238 5.85077,-6.05135 5.85077,-19.01684 0,-12.279 0.52701,-14.23631 3.5249,-13.09165 7.89576,3.01482 20.33034,3.75345 29.2278,1.73621 l 9.43723,-2.13961 v 15.52742 c 0,22.0717 -3.58089,31.79782 -16.6073,45.10748 -13.80266,14.10275 -26.6956,18.43613 -54.852463,18.43613 H 68.836226 Z m 57.719234,-73.74888 c -10.64051,-3.456 -19.47551,-8.98778 -25.23805,-15.80205 -7.388708,-8.73726 -13.314607,-28.60868 -11.356659,-38.08249 2.113608,-10.22698 14.641819,-36.97173 17.318909,-36.97173 1.98965,0 83.26149,41.13549 85.78289,43.41877 1.64778,1.49214 -10.05831,23.64612 -16.5521,31.32512 -11.17202,13.21107 -35.11312,20.93297 -49.95499,16.11238 z m 24.79556,-34.84967 c 5.55608,-4.98099 6.81632,-13.26454 3.1046,-20.4065 -5.55968,-10.69769 -18.09036,-12.40564 -26.87646,-3.66329 -16.04454,15.96462 6.89923,39.19597 23.77186,24.06979 z m 39.87534,-34.00932 C 113.53084,196.32411 48.213113,162.40916 46.075859,159.89769 c -2.137252,-2.51151 -3.885915,-7.44694 -3.885915,-10.96765 0,-8.43501 51.759862,-111.4486 57.546381,-114.530028 2.384975,-1.270044 7.906475,-2.309168 12.270015,-2.309168 h 7.9337 L 105.49075,60.78234 c -16.265605,32.298089 -17.77209,40.85635 -9.37948,53.28433 6.0899,9.01809 9.17458,10.70712 141.80827,77.64808 l 101.35739,51.15562 20.77139,0.86041 c 17.63322,0.73045 23.28758,0.0346 37.42535,-4.606 9.15966,-3.00657 16.95345,-5.19949 17.31948,-4.87319 0.36608,0.32634 -3.91715,10.90073 -9.51829,23.49872 -15.73371,35.38791 -32.07812,48.31421 -61.09002,48.31421 -10.92927,0 -20.93082,-4.62946 -152.95848,-70.80025 z m 223.62485,58.60587 -5.93793,-3.23732 9.07226,-19.76319 9.07225,-19.76317 6.67038,2.70824 c 11.57477,4.69948 11.86149,7.85477 2.35455,25.91195 -4.74758,9.01741 -10.13083,16.61702 -11.96278,16.88806 -1.83192,0.27101 -6.00283,-0.96403 -9.26873,-2.74457 z M 460.30812,225.136 c -13.44501,-6.32899 -33.95695,-10.15549 -45.07026,-8.40786 -4.2745,0.6722 -14.46353,3.25886 -22.64228,5.7482 -11.17696,3.40185 -19.26238,4.32754 -32.55305,3.72699 -17.60156,-0.79534 -17.9303,-0.92283 -71.72995,-27.8146 C 177.8706,143.1843 113.70697,110.44088 110.19725,107.49448 c -6.19296,-5.19896 -4.13357,-12.557863 13.0907,-46.777737 11.71087,-23.26629 18.27138,-33.895033 21.95118,-35.563315 4.62134,-2.095126 14.89583,2.439924 85.99641,37.957863 44.41139,22.185502 85.74416,43.023899 91.8506,46.307559 6.10644,3.28365 46.27672,23.54844 89.26727,45.03284 50.16911,25.07188 79.79421,41.12392 82.7145,44.81794 6.55274,8.289 5.84632,17.46618 -1.94092,25.21462 -8.08571,8.04546 -16.74662,8.21745 -32.81887,0.65175 z M 168.5986,92.553166 c 2.53121,-3.201894 4.60223,-7.044848 4.60223,-8.539893 0,-1.495045 -2.07102,-5.338 -4.60223,-8.539895 -5.63072,-7.122649 -15.65447,-7.760473 -22.04407,-1.402698 -5.77799,5.74924 -5.63555,12.811541 0.38708,19.190416 6.58997,6.979754 15.81806,6.678105 21.65699,-0.70793 z"
     style="stroke-width:6.8;fill:#ffffff;fill-opacity:1;stroke-dasharray:none;paint-order:fill markers stroke"/>
</svg>
