<svg
   width="200"
   height="200"
   xmlns="http://www.w3.org/2000/svg">
  <path
     d="M 19.347918,144.44154 V 95.586922 H 13.162244 6.9765677 L 3.6235847,92.284394 C 1.1829535,89.88049 0.27060193,87.692798 0.27060193,84.244411 c 0,-9.25938 -8.06228183,-2.919496 83.94842907,-66.013967 L 99.294875,7.8924915 111.78402,16.289022 c 14.06353,9.455004 64.21567,43.861747 76.4868,52.473562 5.31504,3.730075 8.6749,7.143208 9.91925,10.076527 l 1.88172,4.43583 -1.38233,4.125493 c -2.15852,6.441958 -5.67773,8.827043 -12.86834,8.721329 l -6.22374,-0.0915 v 48.006617 48.00661 h -3.81546 -3.81547 V 142.15453 92.265594 l -2.8616,-2.635715 C 164.84353,85.70492 101.59742,42.632099 100.03603,42.591576 99.296629,42.572385 91.570316,47.34296 82.86644,53.19285 74.162563,59.042737 58.027178,69.873466 47.010027,77.261133 L 26.978845,90.693255 v 51.301465 51.30145 h -3.815463 -3.815464 z m 120.823002,25.68 V 146.94691 H 117.91406 95.657184 v -4.38439 -4.38439 h 27.344156 27.34415 v 4.38439 c 0,3.06211 -0.57534,4.38439 -1.90773,4.38439 h -1.90773 v 23.17463 23.17463 h -3.17955 -3.17956 z m -86.863806,19.87744 c -1.475393,-1.45318 -1.050438,-2.46838 2.495029,-5.9605 1.862782,-1.83474 5.89973,-3.95913 8.970998,-4.72085 l 5.584121,-1.38493 -0.386205,-3.27924 -0.386205,-3.27924 -10.174569,-0.62634 -10.174569,-0.62634 0.243529,-21.29561 0.243529,-21.2956 h 2.936023 2.936025 l 0.35175,18.44193 0.351751,18.44194 17.453744,0.3483 17.453746,0.34831 0.398555,2.7595 0.398557,2.75948 -8.665394,0.37222 -8.665393,0.37221 -0.375493,3.16992 -0.375494,3.1699 5.855459,1.54253 c 5.848056,1.54058 12.530719,7.00998 11.679959,9.55942 -0.247497,0.74166 -1.767369,1.53822 -3.377494,1.77014 l -2.927498,0.42165 0.791954,-3.10792 0.791954,-3.1079 -5.103545,-2.01131 c -2.80695,-1.10622 -5.950441,-2.01131 -6.985538,-2.01131 -2.205446,0 -2.512779,3.88837 -0.466626,5.90373 1.867107,1.83902 0.338499,4.11773 -2.76225,4.11773 -2.574327,0 -3.404287,-3.0406 -1.196762,-4.38439 2.185157,-1.33017 1.456096,-5.63723 -0.953865,-5.63513 -4.20784,0.004 -11.128435,4.27436 -11.128435,6.86732 0,2.48291 -3.146321,4.02006 -4.831348,2.36038 z m 43.621891,-13.50912 v -14.30093 l -15.376991,-0.41809 -15.37699,-0.41808 -2.428505,-2.95731 -2.428504,-2.95732 v -19.10887 -19.10887 l 2.635951,-3.30064 2.635951,-3.30064 h 6.812798 6.812798 l 5.550606,7.20293 5.550605,7.20292 10.755026,0.62634 c 5.91526,0.34449 11.47042,1.08239 12.3448,1.63979 2.42549,1.54619 1.90248,4.26583 -1.23686,6.43162 -3.29685,2.27445 -20.024711,2.73046 -23.965222,0.6533 l -2.460031,-1.29676 v 8.18652 8.1865 h 8.902747 8.902746 l 2.54365,2.50537 2.54364,2.50537 v 15.74088 c 0,8.65749 -0.59246,16.83125 -1.31657,18.1639 -0.9618,1.7701 -2.67535,2.42301 -6.35911,2.42301 H 96.929005 Z M 117.9427,134.46574 c -1.7574,-2.80075 1.18126,-3.8042 11.17485,-3.81582 l 10.41746,-0.0121 4.32109,-9.38303 c 2.3766,-5.16067 5.08834,-10.01021 6.02611,-10.77677 l 1.705,-1.39374 0.78042,2.00313 c 0.44586,1.14441 -1.59224,6.70924 -4.75428,12.98108 l -5.53469,10.97798 -11.66064,0.35883 c -7.07319,0.21766 -11.98114,-0.15196 -12.47532,-0.93951 z M 74.931497,106.11432 C 58.677809,95.529125 78.134804,74.37745 90.667732,86.721783 c 5.899842,5.811061 4.638313,15.078107 -2.628125,19.305907 -4.39502,2.55713 -8.432123,2.58381 -13.10811,0.0866 z M 165.28939,42.074271 152.88914,33.822502 V 23.80871 13.794919 c 8.89146,0.758962 8.86773,0.823647 26.70824,1.62031 v 17.537558 c 0,9.645656 -0.42924,17.500588 -0.95387,17.455405 -0.52462,-0.04518 -6.53398,-3.795449 -13.35412,-8.333921 z"
     style="stroke-width:1;fill:#ffffff" />
</svg>
