<svg
        width="55px"
        height="55px"
        viewBox="0 0 225 225"
        xmlns="http://www.w3.org/2000/svg"
      >
      <circle
            cx="111"
            cy="115"
            r="107"
            fill="white"
          />
          <path
          fill="red"
          strokeWidth="1"
          d="M 91.335225,221.8891 C 70.166321,217.74475 49.036165,206.42929 34.465771,191.43484 13.71882,170.08407 4.0197187,148.19309 2.6129377,119.54273 1.8071167,103.13141 3.4251687,90.515568 8.0113767,77.451484 13.736493,61.143153 21.936376,47.925095 33.700077,36.041792 50.923725,18.643027 72.393345,7.5447232 95.394641,4.1499827 111.93175,1.7092845 135.13676,3.7341956 148.86673,8.8160512 c 25.86573,9.5736438 47.68724,28.2505128 60.56848,51.8401008 14.78808,27.081656 17.11931,62.610768 6.06797,92.479048 -5.76089,15.56983 -18.63976,33.41848 -32.36564,44.8551 -13.43717,11.19608 -25.27422,17.33009 -43.12181,22.34589 -10.22574,2.87379 -37.49094,3.74355 -48.680505,1.55291 z m 85.617345,-61.14771 2.57835,-1.80784 -20.85305,-20.8966 c -11.46917,-11.49311 -21.1076,-20.89659 -21.41873,-20.89659 -0.31112,0 -4.19979,3.46198 -8.64148,7.6933 -6.7134,6.39543 -8.89225,7.81587 -12.91538,8.41981 -7.11881,1.06865 -11.62275,-0.94646 -20.036419,-8.96451 -4.125728,-3.93174 -7.788569,-7.1486 -8.139649,-7.1486 -0.351081,0 -10.022197,9.40348 -21.491373,20.89659 l -20.853053,20.8966 2.578361,1.80784 c 2.310321,1.6199 9.025557,1.80785 64.596213,1.80785 55.57064,0 62.28589,-0.18795 64.59621,-1.80785 z M 64.063305,131.15065 83.235429,111.93491 63.97875,92.386963 C 53.387575,81.635594 44.381382,72.839021 43.964989,72.839021 c -0.416399,0 -0.757087,17.44365 -0.757087,38.763669 0,21.32003 0.37874,38.76368 0.841641,38.76368 0.462903,0 9.469091,-8.64709 20.013762,-19.21572 z M 181.07749,73.149617 c -0.25101,-0.251266 -9.24234,8.395191 -19.98075,19.214355 l -19.52439,19.671208 19.68964,19.0295 19.68962,19.0295 0.29113,-38.24385 c 0.16012,-21.034128 0.0857,-38.449446 -0.16525,-38.700713 z m -34.37347,24.332022 c 16.52468,-16.294586 30.11922,-30.196183 30.21009,-30.892443 0.0909,-0.696256 -0.62232,-1.568437 -1.58486,-1.938183 -0.96252,-0.369741 -29.77795,-0.672258 -64.03428,-0.672258 -48.566673,0 -62.500282,0.304906 -63.265143,1.384416 -0.692313,0.977121 7.997929,10.263457 29.538555,31.564698 29.376218,29.049771 30.679988,30.180291 34.805088,30.180291 4.12102,0 5.43977,-1.13804 34.33055,-29.626521 z"
          id="path2"
        />
</svg>

        
        
